<svg xmlns="http://www.w3.org/2000/svg" viewBox="0 0 100 80" fill="currentColor">
  <!-- top rail -->
  <rect x="4" y="4" width="92" height="7" rx="1"/>
  <!-- top zone frame -->
  <rect x="4" y="11" width="3" height="28" rx="1"/>
  <rect x="93" y="11" width="3" height="28" rx="1"/>
  <!-- side tabs top zone -->
  <rect x="0" y="17" width="4" height="5" rx="1"/>
  <rect x="96" y="17" width="4" height="5" rx="1"/>
  <rect x="0" y="28" width="4" height="5" rx="1"/>
  <rect x="96" y="28" width="4" height="5" rx="1"/>
  <!-- top zone holes -->
  <rect x="12" y="16" width="5" height="5" rx="0.5"/>
  <rect x="22" y="16" width="5" height="5" rx="0.5"/>
  <rect x="32" y="16" width="5" height="5" rx="0.5"/>
  <rect x="42" y="16" width="5" height="5" rx="0.5"/>
  <rect x="52" y="16" width="5" height="5" rx="0.5"/>
  <rect x="62" y="16" width="5" height="5" rx="0.5"/>
  <rect x="72" y="16" width="5" height="5" rx="0.5"/>
  <rect x="82" y="16" width="5" height="5" rx="0.5"/>
  <rect x="12" y="25" width="5" height="5" rx="0.5"/>
  <rect x="22" y="25" width="5" height="5" rx="0.5"/>
  <rect x="32" y="25" width="5" height="5" rx="0.5"/>
  <rect x="42" y="25" width="5" height="5" rx="0.5"/>
  <rect x="52" y="25" width="5" height="5" rx="0.5"/>
  <rect x="62" y="25" width="5" height="5" rx="0.5"/>
  <rect x="72" y="25" width="5" height="5" rx="0.5"/>
  <rect x="82" y="25" width="5" height="5" rx="0.5"/>
  <rect x="12" y="34" width="5" height="5" rx="0.5"/>
  <rect x="22" y="34" width="5" height="5" rx="0.5"/>
  <rect x="32" y="34" width="5" height="5" rx="0.5"/>
  <rect x="42" y="34" width="5" height="5" rx="0.5"/>
  <rect x="52" y="34" width="5" height="5" rx="0.5"/>
  <rect x="62" y="34" width="5" height="5" rx="0.5"/>
  <rect x="72" y="34" width="5" height="5" rx="0.5"/>
  <rect x="82" y="34" width="5" height="5" rx="0.5"/>
  <!-- divider -->
  <rect x="4" y="39" width="92" height="3" rx="1"/>
  <!-- bottom zone frame -->
  <rect x="4" y="42" width="3" height="28" rx="1"/>
  <rect x="93" y="42" width="3" height="28" rx="1"/>
  <!-- side tabs bottom zone -->
  <rect x="0" y="48" width="4" height="5" rx="1"/>
  <rect x="96" y="48" width="4" height="5" rx="1"/>
  <rect x="0" y="59" width="4" height="5" rx="1"/>
  <rect x="96" y="59" width="4" height="5" rx="1"/>
  <!-- bottom zone holes -->
  <rect x="12" y="47" width="5" height="5" rx="0.5"/>
  <rect x="22" y="47" width="5" height="5" rx="0.5"/>
  <rect x="32" y="47" width="5" height="5" rx="0.5"/>
  <rect x="42" y="47" width="5" height="5" rx="0.5"/>
  <rect x="52" y="47" width="5" height="5" rx="0.5"/>
  <rect x="62" y="47" width="5" height="5" rx="0.5"/>
  <rect x="72" y="47" width="5" height="5" rx="0.5"/>
  <rect x="82" y="47" width="5" height="5" rx="0.5"/>
  <rect x="12" y="56" width="5" height="5" rx="0.5"/>
  <rect x="22" y="56" width="5" height="5" rx="0.5"/>
  <rect x="32" y="56" width="5" height="5" rx="0.5"/>
  <rect x="42" y="56" width="5" height="5" rx="0.5"/>
  <rect x="52" y="56" width="5" height="5" rx="0.5"/>
  <rect x="62" y="56" width="5" height="5" rx="0.5"/>
  <rect x="72" y="56" width="5" height="5" rx="0.5"/>
  <rect x="82" y="56" width="5" height="5" rx="0.5"/>
  <rect x="12" y="65" width="5" height="5" rx="0.5"/>
  <rect x="22" y="65" width="5" height="5" rx="0.5"/>
  <rect x="32" y="65" width="5" height="5" rx="0.5"/>
  <rect x="42" y="65" width="5" height="5" rx="0.5"/>
  <rect x="52" y="65" width="5" height="5" rx="0.5"/>
  <rect x="62" y="65" width="5" height="5" rx="0.5"/>
  <rect x="72" y="65" width="5" height="5" rx="0.5"/>
  <rect x="82" y="65" width="5" height="5" rx="0.5"/>
  <!-- bottom rail -->
  <rect x="4" y="70" width="92" height="7" rx="1"/>
</svg>
